<svg width="138" height="67" viewBox="0 0 138 67" fill="none" xmlns="http://www.w3.org/2000/svg">
<rect width="137.08" height="67" rx="3.85057" fill="white"/>
<path d="M58.13 24.4L57.35 24.27V23.57H59.86L62.62 27.83L63.18 29.03V24.4L62.33 24.27V23.57H64.89V24.27L64.13 24.4V31H62.66L59.73 26.43L59.07 25.11V30.23L60.13 30.34V31H57.35V30.34L58.13 30.23V24.4ZM66.6569 24.41L65.8769 24.27V23.57H71.3469L71.4769 25.34H70.6869L70.3369 24.33L68.3669 24.23V26.83L69.5869 26.8L69.7669 25.98H70.4569V28.49H69.7669L69.5969 27.62L68.3669 27.59V30.31L70.5569 30.17L71.1669 28.88L72.0169 29.12L71.7769 31H65.8869V30.34L66.6569 30.24V24.41ZM75.3891 24.31L74.1391 24.36L73.7191 26.59H72.7791L72.9391 23.57H79.5291L79.6591 26.59H78.7691L78.3291 24.36L77.1191 24.31V30.23L78.5091 30.34V31H74.1191V30.34L75.3891 30.23V24.31ZM83.1352 24.31L81.8852 24.36L81.4652 26.59H80.5252L80.6852 23.57H87.2752L87.4052 26.59H86.5152L86.0752 24.36L84.8652 24.31V30.23L86.2552 30.34V31H81.8652V30.34L83.1352 30.23V24.31ZM89.3313 24.41L88.5113 24.27V23.57H91.8813V24.27L91.0413 24.41V30.24L91.8813 30.35V31H88.5213V30.34L89.3313 30.23V24.41ZM58.22 37.41L57.4 37.27V36.57H60.77V37.27L59.93 37.41V43.24L60.77 43.35V44H57.41V43.34L58.22 43.23V37.41ZM62.7999 37.4L62.0199 37.27V36.57H64.5299L67.2899 40.83L67.8499 42.03V37.4L66.9999 37.27V36.57H69.5599V37.27L68.7999 37.4V44H67.3299L64.3999 39.43L63.7399 38.11V43.23L64.7999 43.34V44H62.0199V43.34L62.7999 43.23V37.4ZM73.2268 44.11C72.8601 44.11 72.5201 44.08 72.2068 44.02C71.9001 43.96 71.5768 43.88 71.2368 43.78C71.0168 43.7133 70.8568 43.6767 70.7568 43.67L70.8468 41.8H71.7768L72.0268 43.08C72.1001 43.1667 72.2335 43.2433 72.4268 43.31C72.6268 43.3767 72.8635 43.41 73.1368 43.41C73.5435 43.41 73.8468 43.32 74.0468 43.14C74.2535 42.96 74.3568 42.7133 74.3568 42.4C74.3568 42.18 74.2901 41.99 74.1568 41.83C74.0301 41.6633 73.8501 41.5133 73.6168 41.38C73.3901 41.24 73.0768 41.08 72.6768 40.9C72.1501 40.66 71.7035 40.3567 71.3368 39.99C70.9768 39.6167 70.7968 39.1267 70.7968 38.52C70.7968 38.1467 70.8935 37.8067 71.0868 37.5C71.2801 37.1933 71.5735 36.9467 71.9668 36.76C72.3601 36.5733 72.8501 36.48 73.4368 36.48C73.7901 36.48 74.0968 36.5033 74.3568 36.55C74.6235 36.5967 74.9068 36.66 75.2068 36.74C75.3668 36.7933 75.4901 36.8233 75.5768 36.83L75.5168 38.61H74.6068L74.3768 37.38C74.3301 37.32 74.2235 37.2667 74.0568 37.22C73.8968 37.1667 73.7168 37.14 73.5168 37.14C73.1501 37.14 72.8735 37.2267 72.6868 37.4C72.5068 37.5733 72.4168 37.7967 72.4168 38.07C72.4168 38.31 72.4935 38.52 72.6468 38.7C72.8001 38.88 72.9835 39.0333 73.1968 39.16C73.4168 39.28 73.7501 39.45 74.1968 39.67C74.5501 39.8433 74.8568 40.02 75.1168 40.2C75.3835 40.3733 75.6101 40.6 75.7968 40.88C75.9835 41.16 76.0768 41.4867 76.0768 41.86C76.0768 42.2267 75.9868 42.58 75.8068 42.92C75.6335 43.26 75.3335 43.5433 74.9068 43.77C74.4801 43.9967 73.9201 44.11 73.2268 44.11ZM80.6805 44.08C79.6472 44.08 78.8739 43.83 78.3605 43.33C77.8472 42.83 77.5905 42.0467 77.5905 40.98V37.41L76.9705 37.27V36.57H80.2005V37.27L79.3605 37.42V41.12C79.3605 42.6267 79.8839 43.38 80.9305 43.38C81.4505 43.38 81.8305 43.1833 82.0705 42.79C82.3172 42.39 82.4405 41.84 82.4405 41.14V37.41L81.5805 37.27V36.57H84.1805V37.27L83.5205 37.41V41.05C83.5205 42.09 83.2639 42.8567 82.7505 43.35C82.2439 43.8367 81.5539 44.08 80.6805 44.08ZM85.1017 43.34L85.8717 43.24V37.4L85.1417 37.26V36.57H86.6817C86.8084 36.57 86.9451 36.5667 87.0917 36.56C87.2451 36.5533 87.3617 36.5467 87.4417 36.54C87.8017 36.5133 88.1084 36.5 88.3617 36.5C89.0751 36.5 89.6417 36.57 90.0617 36.71C90.4817 36.8433 90.7851 37.0567 90.9717 37.35C91.1651 37.6367 91.2617 38.0167 91.2617 38.49C91.2617 38.9433 91.1417 39.3667 90.9017 39.76C90.6617 40.1533 90.3084 40.4233 89.8417 40.57C90.1484 40.6833 90.4051 40.8967 90.6117 41.21C90.8251 41.5167 91.0451 41.91 91.2717 42.39C91.4051 42.67 91.5117 42.88 91.5917 43.02C91.6717 43.1533 91.7551 43.23 91.8417 43.25L92.1317 43.34V44H90.2317C90.1317 44 90.0284 43.8933 89.9217 43.68C89.8151 43.4667 89.6784 43.1333 89.5117 42.68C89.3051 42.1267 89.1251 41.7 88.9717 41.4C88.8251 41.0933 88.6617 40.9067 88.4817 40.84H87.5817V43.24L88.4717 43.34V44H85.1017V43.34ZM88.3517 40.19C88.6984 40.19 88.9684 40.0567 89.1617 39.79C89.3551 39.5167 89.4517 39.1067 89.4517 38.56C89.4517 38.08 89.3551 37.73 89.1617 37.51C88.9751 37.2833 88.6584 37.17 88.2117 37.17C87.9717 37.17 87.7617 37.1867 87.5817 37.22V40.16C87.6684 40.18 87.8117 40.19 88.0117 40.19C88.2117 40.19 88.3251 40.19 88.3517 40.19ZM95.1962 36.54H96.9962L99.2362 43.24L99.7862 43.34V44H96.6362V43.34L97.3462 43.24L97.0062 42.04H94.6162L94.2762 43.25L95.0562 43.34V44H92.3962L92.3862 43.34L92.9662 43.23L95.1962 36.54ZM95.9362 38.28L95.7862 37.58L95.6262 38.29L94.8162 41.27H96.7962L95.9362 38.28ZM101.276 37.4L100.496 37.27V36.57H103.006L105.766 40.83L106.326 42.03V37.4L105.476 37.27V36.57H108.036V37.27L107.276 37.4V44H105.806L102.876 39.43L102.216 38.11V43.23L103.276 43.34V44H100.496V43.34L101.276 43.23V37.4ZM112.483 44.11C111.33 44.11 110.453 43.7767 109.853 43.11C109.253 42.4367 108.953 41.5167 108.953 40.35C108.953 39.5633 109.113 38.88 109.433 38.3C109.753 37.7133 110.193 37.2667 110.753 36.96C111.313 36.6467 111.947 36.49 112.653 36.49C112.933 36.49 113.203 36.5067 113.463 36.54C113.723 36.5667 114.037 36.6067 114.403 36.66C114.69 36.7067 114.887 36.7333 114.993 36.74L114.873 38.97H113.803L113.463 37.44C113.317 37.28 113.01 37.2 112.543 37.2C112.03 37.2 111.623 37.4567 111.323 37.97C111.03 38.4767 110.883 39.2233 110.883 40.21C110.883 41.17 111.027 41.94 111.313 42.52C111.607 43.1 112.03 43.39 112.583 43.39C112.857 43.39 113.063 43.3633 113.203 43.31C113.35 43.2567 113.473 43.18 113.573 43.08L114.023 42.01L115.003 42.1L114.823 43.73C114.63 43.7433 114.393 43.7933 114.113 43.88C113.847 43.9533 113.593 44.01 113.353 44.05C113.12 44.09 112.83 44.11 112.483 44.11ZM116.924 37.41L116.144 37.27V36.57H121.614L121.744 38.34H120.954L120.604 37.33L118.634 37.23V39.83L119.854 39.8L120.034 38.98H120.724V41.49H120.034L119.864 40.62L118.634 40.59V43.31L120.824 43.17L121.434 41.88L122.284 42.12L122.044 44H116.154V43.34L116.924 43.24V37.41Z" fill="#004247"/>
<rect x="10.7816" y="20.023" width="34.1798" height="2.30056" fill="#004247"/>
<rect x="10.7816" y="44.0146" width="34.1798" height="2.30056" fill="#004247"/>
<rect x="21.6271" y="23.9668" width="18.7331" height="3.28652" transform="rotate(90 21.6271 23.9668)" fill="#004247"/>
<rect x="26.8856" y="23.9668" width="18.7331" height="3.28652" transform="rotate(90 26.8856 23.9668)" fill="#004247"/>
<rect x="32.1439" y="23.9668" width="18.7331" height="3.28652" transform="rotate(90 32.1439 23.9668)" fill="#004247"/>
<rect x="37.4023" y="23.9668" width="18.7331" height="3.28652" transform="rotate(90 37.4023 23.9668)" fill="#004247"/>
</svg>
